<svg xmlns="http://www.w3.org/2000/svg" viewBox="0 0 1000 350" width="1000" height="350">
  <!-- Road surface - dramatic S-curves like reference image -->
  <path d="M-20,280
           C30,280 50,320 100,320
           C150,320 170,250 220,200
           C270,150 290,120 340,120
           C390,120 410,180 460,220
           C510,260 530,280 580,280
           C630,280 650,220 700,160
           C750,100 770,60 820,60
           C870,60 890,100 940,140
           C990,180 1010,200 1020,200"
        fill="none"
        stroke="#3d3a36"
        stroke-width="55"
        stroke-linecap="round"
        stroke-linejoin="round"/>
  <!-- White dashed center line -->
  <path d="M-20,280
           C30,280 50,320 100,320
           C150,320 170,250 220,200
           C270,150 290,120 340,120
           C390,120 410,180 460,220
           C510,260 530,280 580,280
           C630,280 650,220 700,160
           C750,100 770,60 820,60
           C870,60 890,100 940,140
           C990,180 1010,200 1020,200"
        fill="none"
        stroke="#ffffff"
        stroke-width="4"
        stroke-dasharray="20,15"
        stroke-linecap="round"/>
</svg>
